<svg version="1.1" id="Layer_1" xmlns="http://www.w3.org/2000/svg" xmlns:xlink="http://www.w3.org/1999/xlink" x="0px" y="0px"
	 viewBox="0 0 1920 1080" xml:space="preserve" style="transform: scale(3) translateX(25%); position: absolute; z-index: 1;">
<style type="text/css">
	.st0{fill:#0053B2;}
	.st1{fill:#00ACE4;}
	.st2{fill:none;}
</style>
<g>
	<g>
		<path class="st1" d="M487.6,416.62v-48.73c0,26.6-21.64,48.23-48.23,48.23c-37.83,0-68.61,30.78-68.61,68.61v71.81
			c0-19.04,7.8-36.29,20.37-48.73v-23.07c0-26.6,21.64-48.23,48.23-48.23C458.15,436.49,475.19,428.89,487.6,416.62z M456.52,581.48
			v-44.7c0-20.56,12.93-38.14,31.08-45.07c5.33-2.04,11.11-3.16,17.15-3.16c1.08,0,2.15-0.03,3.22-0.08
			c17.51-0.81,33.32-8.22,45.01-19.79c3.88-3.84,7.3-8.14,10.19-12.81c-6.45-10.46-10.19-22.76-10.19-35.92
			c0,26.6-21.64,48.23-48.23,48.23c-1.02,0-2.02,0.03-3.03,0.08c-26.35,1.15-48.87,17.23-59.33,39.97c-4,8.7-6.25,18.37-6.25,28.56
			v93.44v55.54v0.66h20.37v-0.66v-55.54c0-21.81,14.55-40.27,34.45-46.22c-2.08-6.39-3.24-13.18-3.34-20.23
			C475.69,566.85,465.02,573.06,456.52,581.48z M507.97,561.49v1.31c0,6.67,1.36,13.03,3.82,18.82
			c21.71-2.22,40.45-14.62,51.38-32.32c-6.45-10.46-10.19-22.76-10.19-35.92C552.98,538.88,533.07,559.82,507.97,561.49z
			 M528.2,625.4c-16.21,12.56-26.67,32.19-26.67,54.24v72.5h20.37v-72.5c0-24.23,17.96-44.34,41.27-47.73
			c-2.28-0.33-4.6-0.51-6.97-0.51C546.23,631.4,536.75,629.25,528.2,625.4z M618.37,488.46v73.02v1.31c0,6.67-1.36,13.03-3.82,18.82
			c-7.35,17.27-24.49,29.42-44.41,29.42c-2.35,0-4.68,0.12-6.97,0.35c13.09,1.33,25.1,6.36,34.97,14.02
			c17.56-7.88,31.21-22.93,37.23-41.41c2.08-6.39,3.24-13.18,3.34-20.22c0-0.32,0.02-0.65,0.02-0.97v-71.09
			c-5.33-2.04-11.11-3.16-17.15-3.16C620.51,488.54,619.44,488.51,618.37,488.46z M735.21,507.8
			c-12.4-12.28-29.45-19.87-48.23-19.87c-26.6,0-48.23-21.64-48.23-48.23v-23.07v-48.73v-0.43h-20.37v0.43v71.81
			c0,10.19,2.25,19.85,6.25,28.56c26.35,1.15,48.87,17.23,59.33,39.97c1.01,0.04,2.01,0.08,3.03,0.08
			c26.6,0,48.23,21.64,48.23,48.23v72.5h20.37v-72.5C755.58,537.49,747.78,520.24,735.21,507.8z"/>
		<path class="st0" d="M507.97,439.69v-71.81v-0.43H487.6v0.43v48.73v23.07c0,26.6-21.64,48.23-48.23,48.23
			c-18.79,0-35.83,7.6-48.23,19.87c-12.57,12.44-20.37,29.69-20.37,48.73v72.5h20.37v-72.5c0-26.6,21.64-48.23,48.23-48.23
			c1.02,0,2.02-0.03,3.03-0.08c10.46-22.74,32.98-38.82,59.33-39.97C505.72,459.55,507.97,449.88,507.97,439.69z M686.98,416.12
			c-26.6,0-48.23-21.64-48.23-48.23v48.73c12.4,12.28,29.45,19.87,48.23,19.87c26.6,0,48.23,21.64,48.23,48.23v23.07
			c12.57,12.44,20.37,29.69,20.37,48.73v-71.81C755.58,446.9,724.81,416.12,686.98,416.12z M598.14,625.4
			c-9.88-7.66-21.88-12.69-34.97-14.02c-2.29-0.23-4.62-0.35-6.97-0.35c-19.92,0-37.06-12.14-44.41-29.42
			c-2.46-5.79-3.82-12.15-3.82-18.82v-1.31v-73.02c-1.07,0.05-2.14,0.08-3.22,0.08c-6.04,0-11.82,1.13-17.15,3.16v71.09
			c0,0.33,0.02,0.65,0.02,0.97c0.1,7.05,1.26,13.84,3.34,20.23c6.02,18.48,19.68,33.52,37.23,41.41c8.56,3.84,18.03,6,28.01,6
			c2.37,0,4.69,0.18,6.97,0.51c23.31,3.39,41.27,23.5,41.27,47.73v72.5h20.37v-72.5C624.81,657.6,614.35,637.96,598.14,625.4z
			 M624.62,468.25c-1.01-0.04-2.01-0.08-3.03-0.08c-26.6,0-48.23-21.64-48.23-48.23v-92.07h-20.37v92.07
			c0,13.16,3.73,25.47,10.19,35.92c-2.88,4.67-6.31,8.97-10.19,12.81v44.7c0,13.16,3.73,25.47,10.19,35.92
			c10.93,17.7,29.67,30.1,51.38,32.32c2.46-5.79,3.82-12.15,3.82-18.82v-1.31c-25.1-1.66-45.01-22.6-45.01-48.12v-44.7
			c11.69,11.57,27.5,18.98,45.01,19.79c1.07,0.05,2.14,0.08,3.22,0.08c6.04,0,11.82,1.13,17.15,3.16
			c18.15,6.93,31.08,24.51,31.08,45.07v44.7c-8.5-8.41-19.18-14.63-31.11-17.71c-0.1,7.05-1.26,13.84-3.34,20.22
			c19.9,5.95,34.45,24.41,34.45,46.22v55.54v0.66h20.37v-0.66v-55.54v-93.44c0-10.19-2.25-19.85-6.25-28.56
			C673.49,485.48,650.97,469.4,624.62,468.25z"/>
	</g>
</g>
</svg>

