<svg width="20" height="20" viewBox="0 0 20 20" fill="none" xmlns="http://www.w3.org/2000/svg">
<path d="M10.0001 6.87726C8.2798 6.87726 6.87589 8.28117 6.87589 10.0015C6.87589 11.7218 8.2798 13.1257 10.0001 13.1257C11.7204 13.1257 13.1243 11.7218 13.1243 10.0015C13.1243 8.28117 11.7204 6.87726 10.0001 6.87726ZM19.3704 10.0015C19.3704 8.70773 19.3821 7.4257 19.3095 6.13429C19.2368 4.63429 18.8946 3.30304 17.7978 2.20617C16.6986 1.10695 15.3696 0.767103 13.8696 0.694447C12.5759 0.621791 11.2939 0.63351 10.0025 0.63351C8.7087 0.63351 7.42667 0.621791 6.13527 0.694447C4.63527 0.767103 3.30402 1.10929 2.20714 2.20617C1.10792 3.30538 0.76808 4.63429 0.695424 6.13429C0.622767 7.42804 0.634486 8.71007 0.634486 10.0015C0.634486 11.2929 0.622767 12.5773 0.695424 13.8687C0.76808 15.3687 1.11027 16.6999 2.20714 17.7968C3.30636 18.896 4.63527 19.2359 6.13527 19.3085C7.42902 19.3812 8.71105 19.3694 10.0025 19.3694C11.2962 19.3694 12.5782 19.3812 13.8696 19.3085C15.3696 19.2359 16.7009 18.8937 17.7978 17.7968C18.897 16.6976 19.2368 15.3687 19.3095 13.8687C19.3845 12.5773 19.3704 11.2952 19.3704 10.0015ZM10.0001 14.8085C7.33996 14.8085 5.19308 12.6616 5.19308 10.0015C5.19308 7.34132 7.33996 5.19445 10.0001 5.19445C12.6603 5.19445 14.8071 7.34132 14.8071 10.0015C14.8071 12.6616 12.6603 14.8085 10.0001 14.8085ZM15.004 6.12023C14.3829 6.12023 13.8814 5.61867 13.8814 4.99757C13.8814 4.37648 14.3829 3.87492 15.004 3.87492C15.6251 3.87492 16.1267 4.37648 16.1267 4.99757C16.1269 5.14505 16.0979 5.29112 16.0416 5.42741C15.9852 5.5637 15.9026 5.68754 15.7983 5.79182C15.694 5.89611 15.5702 5.9788 15.4339 6.03515C15.2976 6.0915 15.1515 6.12041 15.004 6.12023Z" fill="#27AAE1"/>
</svg>
