<svg width="28" height="28" viewBox="0 0 28 28" fill="none" xmlns="http://www.w3.org/2000/svg">
<path d="M25.0526 0H2.94742C2.16565 0 1.41605 0.310704 0.86322 0.863224C0.310696 1.41601 0 2.16566 0 2.94743V10.0935C0 10.8753 0.310703 11.6249 0.86322 12.1777C1.416 12.7305 2.16565 13.0409 2.94742 13.0409H25.0526C25.8344 13.0409 26.584 12.7305 27.1368 12.1777C27.6893 11.6249 28 10.8753 28 10.0935V2.94743C28 2.16566 27.6893 1.41605 27.1368 0.863224C26.584 0.310697 25.8344 0 25.0526 0ZM26.5261 10.0934C26.5261 10.4843 26.3709 10.8593 26.0946 11.1355C25.8181 11.4118 25.4434 11.5673 25.0525 11.5673H2.94738C2.5565 11.5673 2.18179 11.4118 1.90528 11.1355C1.62902 10.8593 1.4738 10.4843 1.4738 10.0934V2.94737C1.4738 2.55649 1.62902 2.18178 1.90528 1.90526C2.1818 1.629 2.55649 1.47378 2.94738 1.47378H25.0525C25.4434 1.47378 25.8181 1.629 26.0946 1.90526C26.3709 2.18178 26.5261 2.55647 26.5261 2.94737V10.0934ZM25.0526 14.9567H2.94742C2.16565 14.9567 1.41605 15.2672 0.86322 15.8199C0.310696 16.3727 0 17.1224 0 17.9039V25.0526C0 25.8343 0.310703 26.5839 0.86322 27.1368C1.416 27.6893 2.16565 28 2.94742 28H25.0526C25.8344 28 26.584 27.6893 27.1368 27.1368C27.6893 26.584 28 25.8343 28 25.0526V17.9065C28 17.1247 27.6893 16.3751 27.1368 15.8223C26.584 15.2695 25.8344 14.9591 25.0526 14.9591V14.9567ZM26.5261 25.0528C26.5261 25.4436 26.3709 25.8184 26.0946 26.0949C25.8181 26.3711 25.4434 26.5264 25.0525 26.5264H2.94738C2.5565 26.5264 2.18179 26.3711 1.90528 26.0949C1.62902 25.8183 1.4738 25.4437 1.4738 25.0528V17.9067C1.4738 17.5158 1.62902 17.1409 1.90528 16.8646C2.1818 16.5883 2.55649 16.4329 2.94738 16.4329H25.0525C25.4434 16.4329 25.8181 16.5883 26.0946 16.8646C26.3709 17.1409 26.5261 17.5158 26.5261 17.9067V25.0528Z" fill="#3D5370"/>
</svg>
