<svg width="156" height="56" viewBox="0 0 156 56" fill="none" xmlns="http://www.w3.org/2000/svg">
<path d="M60.2615 24.8394H62.21V15.0799H60.2615V24.8394ZM71.623 15.0799H64.3134V24.8394H66.2619V17.0374H71.623V24.8394H73.5874V17.0374C73.5861 15.732 72.9322 15.0799 71.623 15.0799ZM82.9224 15.0799H75.6127V24.8394H77.5613V17.0374H82.9224V24.8394H84.8868V17.0374C84.8855 15.732 84.2315 15.0799 82.9224 15.0799ZM95.9518 15.6541C95.7744 15.4785 95.5693 15.3386 95.3363 15.2344C95.102 15.1314 94.8505 15.0786 94.5804 15.0786H88.7203C88.4608 15.0786 88.2133 15.1275 87.9803 15.2264C87.746 15.3254 87.5382 15.4627 87.3569 15.6383C87.1755 15.8151 87.0325 16.0224 86.928 16.2599C86.8234 16.4988 86.7718 16.7575 86.7718 17.0374V22.8965C86.7718 24.1913 87.4204 24.8394 88.7203 24.8394H94.5804C95.879 24.8394 96.529 24.1913 96.529 22.8965V17.0374C96.529 16.7681 96.4774 16.5147 96.3728 16.2758C96.2682 16.0382 96.1279 15.831 95.9518 15.6541ZM94.5804 22.8965H88.7203V17.0374H94.5804V22.8965ZM102.389 22.2748L99.739 15.0799H97.4953L101.361 24.8394H103.309L107.283 15.0799H105.178L102.389 22.2748ZM116.323 15.0799H108.514V17.0387H116.323V18.9974H110.463C109.891 18.9974 109.423 19.1783 109.059 19.5412C108.695 19.9042 108.514 20.3701 108.514 20.9404V22.8991C108.514 23.1789 108.563 23.4376 108.662 23.6765C108.762 23.9154 108.897 24.12 109.067 24.2903C109.238 24.4606 109.443 24.5965 109.683 24.6942C109.921 24.7932 110.182 24.842 110.463 24.842H118.287V17.04C118.287 16.4698 118.106 16.0012 117.742 15.633C117.376 15.2634 116.904 15.0799 116.323 15.0799ZM116.323 22.8965H110.463V20.9377H116.323V22.8965ZM131.094 24.8394H133.043V15.0799H131.094V24.8394ZM144.186 15.6541C144.008 15.4785 143.803 15.3386 143.57 15.2344C143.336 15.1314 143.084 15.0786 142.814 15.0786H136.954C136.695 15.0786 136.447 15.1275 136.214 15.2264C135.98 15.3254 135.772 15.4627 135.591 15.6383C135.41 15.8151 135.267 16.0224 135.162 16.2599C135.059 16.4988 135.006 16.7575 135.006 17.0374V22.8965C135.006 24.1913 135.654 24.8394 136.954 24.8394H142.814C144.113 24.8394 144.763 24.1913 144.763 22.8965V17.0374C144.763 16.7681 144.711 16.5147 144.607 16.2758C144.502 16.0382 144.362 15.831 144.186 15.6541ZM142.814 22.8965H136.954V17.0374H142.814V22.8965ZM154.036 15.0799H146.726V24.8394H148.675V17.0374H154.036V24.8394H156V17.0374C155.999 15.732 155.345 15.0799 154.036 15.0799ZM119.842 17.0295H123.646V22.9044C123.646 23.1842 123.695 23.4429 123.794 23.6818C123.892 23.9207 124.028 24.1253 124.199 24.2956C124.371 24.4658 124.575 24.6018 124.814 24.6995C125.054 24.7985 125.313 24.8473 125.594 24.8473H129.537V22.9044H125.594V17.0295H129.537V15.0865H119.844V17.0295H119.842Z" fill="white"/>
<path d="M68.2738 37.7232H62.1966V29.6388H60.1978V37.7232C60.1978 38.0123 60.2467 38.2803 60.3434 38.5271C60.44 38.7739 60.5777 38.9851 60.7537 39.162C60.9311 39.3388 61.1429 39.4787 61.3904 39.5804C61.638 39.682 61.9067 39.7335 62.1966 39.7335H68.2738C68.8761 39.7335 69.3619 39.5487 69.7326 39.1791C70.1032 38.8095 70.2885 38.3251 70.2885 37.7246V29.6401H68.2738V37.7232ZM80.4773 29.6375H72.4012V43.0742H74.4159V39.7308H80.4773C80.746 39.7308 81.0041 39.6807 81.2503 39.5777C81.4979 39.4761 81.7123 39.3362 81.895 39.1593C82.0777 38.9824 82.2259 38.7765 82.3384 38.5403C82.4509 38.304 82.5079 38.048 82.5079 37.7681V31.6609C82.5079 31.0603 82.3225 30.5733 81.9519 30.1984C81.5813 29.8249 81.0901 29.6375 80.4773 29.6375ZM80.4773 37.7232H74.4159V31.6635H80.4773V37.7232ZM91.8256 33.6883H86.4579V31.6635H93.373V29.6388H86.4579C85.845 29.6388 85.3565 29.8156 84.9912 30.1694C84.6258 30.5231 84.4432 31.0207 84.4432 31.6635V33.6883C84.4432 34.3522 84.6285 34.8538 84.9991 35.1917C85.3698 35.5296 85.8556 35.6985 86.4579 35.6985H91.8256V37.7232H84.5874V39.7322H91.8256C92.4808 39.7322 92.9865 39.5606 93.3413 39.2174C93.696 38.8742 93.8734 38.3766 93.8734 37.7232V35.6985C93.8734 35.0874 93.6881 34.6003 93.3174 34.236C92.9455 33.8704 92.4477 33.6883 91.8256 33.6883ZM95.3083 31.6464H99.2411V37.7219C99.2411 38.011 99.2927 38.2789 99.3947 38.5258C99.4966 38.7726 99.6369 38.9838 99.8143 39.1606C99.9917 39.3375 100.203 39.4774 100.451 39.579C100.699 39.6807 100.967 39.7322 101.257 39.7322H105.336V37.7232H101.257V31.6477H105.336V29.6388H95.3096V31.6464H95.3083ZM114.346 29.6375H107.125V39.7322H109.14V31.6635H114.346V33.6883H116.377V31.6635C116.377 30.3133 115.7 29.6375 114.346 29.6375ZM127.378 30.209C127.201 30.0321 126.989 29.8935 126.742 29.7906C126.494 29.6889 126.225 29.6375 125.935 29.6375H119.923C119.278 29.6375 118.783 29.8249 118.44 30.1997C118.096 30.5746 117.924 31.0577 117.924 31.6464V37.7219C117.924 38.011 117.972 38.2763 118.07 38.5178C118.166 38.7594 118.304 38.9706 118.48 39.1527C118.658 39.3349 118.869 39.4774 119.117 39.579C119.364 39.6807 119.633 39.7322 119.923 39.7322H127.435V37.7232H119.923V35.6813H125.935C126.538 35.6813 127.021 35.4992 127.386 35.1349C127.752 34.7706 127.934 34.2836 127.934 33.6724V31.6477C127.934 31.3586 127.887 31.0907 127.789 30.8439C127.693 30.597 127.556 30.3858 127.378 30.209ZM125.937 33.6724H119.924V31.6477H125.937V33.6724ZM137.719 29.6375H129.643V31.6622H137.719V33.687H131.658C131.066 33.687 130.583 33.8744 130.207 34.2492C129.831 34.6241 129.643 35.1072 129.643 35.6959V37.7206C129.643 38.0097 129.693 38.2776 129.797 38.5244C129.899 38.7713 130.039 38.9824 130.216 39.1593C130.394 39.3362 130.606 39.4761 130.853 39.5777C131.101 39.6794 131.369 39.7308 131.659 39.7308H139.751V31.6622C139.751 31.0735 139.563 30.5878 139.187 30.2077C138.81 29.8288 138.322 29.6375 137.719 29.6375ZM137.719 37.7232H131.658V35.6985H137.719V37.7232ZM153.984 29.6375H141.862V39.7322H143.877V31.6635H147.923V39.7322H149.937V31.6635H153.983V39.7322H155.997V31.6635C155.999 30.3133 155.327 29.6375 153.984 29.6375Z" fill="#27AAE1"/>
<path d="M15.4664 11.7142V5.28224C15.4664 8.79322 12.6019 11.6482 9.08209 11.6482C4.07443 11.6482 0 15.7109 0 20.7041V30.1824C0 27.6693 1.03251 25.3925 2.69643 23.7505V20.7054C2.69643 17.1945 5.56098 14.3395 9.08077 14.3395C11.5681 14.3369 13.8237 13.3337 15.4664 11.7142ZM11.3523 33.4743V27.5743C11.3523 24.8605 13.0639 22.5401 15.4664 21.6254C16.172 21.3562 16.9371 21.2083 17.7366 21.2083C17.8796 21.2083 18.0212 21.2044 18.1629 21.1978C20.4807 21.0909 22.5735 20.1128 24.121 18.5857C24.6346 18.0788 25.0873 17.5112 25.4698 16.8948C24.616 15.5142 24.121 13.8907 24.121 12.1537C24.121 15.6647 21.2564 18.5197 17.7366 18.5197C17.6016 18.5197 17.4692 18.5236 17.3355 18.5302C13.8475 18.682 10.8665 20.8044 9.48186 23.8059C8.95237 24.9543 8.65453 26.2306 8.65453 27.5756V39.9089V47.2397V47.3268H11.351V47.2397V39.9089C11.351 37.0301 13.277 34.5936 15.9112 33.8082C15.6359 32.9648 15.4823 32.0686 15.4691 31.1381C13.8899 31.5433 12.4775 32.3629 11.3523 33.4743ZM18.1629 30.8358V31.0087C18.1629 31.8891 18.3429 32.7285 18.6685 33.4928C21.5423 33.1998 24.023 31.5631 25.4698 29.2268C24.616 27.8462 24.121 26.2227 24.121 24.4857C24.121 27.8515 21.4854 30.6154 18.1629 30.8358ZM20.8408 39.2714C18.695 40.9292 17.3104 43.5202 17.3104 46.4306V56H20.0068V46.4306C20.0068 43.2324 22.3842 40.5781 25.4698 40.1306C25.168 40.0871 24.8609 40.0633 24.5472 40.0633C23.2275 40.0633 21.9726 39.7795 20.8408 39.2714ZM32.7768 21.1965V30.8345V31.0074C32.7768 31.8878 32.5968 32.7272 32.2712 33.4915C31.2982 35.7709 29.0294 37.3746 26.3925 37.3746C26.0814 37.3746 25.773 37.3905 25.4698 37.4208C27.2026 37.5964 28.7924 38.2603 30.0989 39.2714C32.4234 38.2313 34.2303 36.2448 35.0272 33.8056C35.3025 32.9622 35.4561 32.066 35.4693 31.1367C35.4693 31.0945 35.4719 31.0509 35.4719 31.0087V21.6254C34.7664 21.3562 34.0013 21.2083 33.2017 21.2083C33.0601 21.207 32.9185 21.203 32.7768 21.1965ZM48.2433 23.7492C46.6018 22.1283 44.3449 21.1265 41.8589 21.1265C38.3378 21.1265 35.4746 18.2702 35.4746 14.7606V11.7155V5.28356V5.22681H32.7781V5.28356V14.7619C32.7781 16.1069 33.076 17.3819 33.6055 18.5315C37.0935 18.6833 40.0745 20.8058 41.4592 23.8072C41.5929 23.8125 41.7252 23.8178 41.8602 23.8178C45.3814 23.8178 48.2446 26.6741 48.2446 30.1837V39.7531H50.941V30.1837C50.9397 27.668 49.9072 25.3911 48.2433 23.7492Z" fill="#27AAE1"/>
<path d="M18.163 14.7593V5.28098V5.22422H15.4666V5.28098V11.7129V14.758C15.4666 18.2689 12.602 21.1239 9.08224 21.1239C6.59496 21.1239 4.33933 22.127 2.6979 23.7466C1.03398 25.3885 0.00146484 27.6654 0.00146484 30.1785V39.7479H2.6979V30.1785C2.6979 26.6675 5.56245 23.8126 9.08224 23.8126C9.21726 23.8126 9.34963 23.8086 9.48333 23.802C10.868 20.8005 13.849 18.6781 17.337 18.5263C17.8652 17.3806 18.163 16.1043 18.163 14.7593ZM41.8591 11.6482C38.338 11.6482 35.4747 8.79195 35.4747 5.2823V11.7142C37.1162 13.3351 39.3731 14.3369 41.8591 14.3369C45.3802 14.3369 48.2434 17.1932 48.2434 20.7029V23.7479C49.9073 25.3899 50.9399 27.6667 50.9399 30.1798V20.7015C50.9399 15.7109 46.8667 11.6482 41.8591 11.6482ZM30.0991 39.2714C28.7912 38.2604 27.2028 37.5964 25.47 37.4209C25.1669 37.3905 24.8584 37.3747 24.5474 37.3747C21.9105 37.3747 19.6416 35.7723 18.6687 33.4915C18.343 32.7273 18.163 31.8878 18.163 31.0074V30.8345V21.1965C18.0214 21.2031 17.8797 21.2071 17.7368 21.2071C16.9372 21.2071 16.1721 21.3562 15.4666 21.6242V31.0074C15.4666 31.051 15.4692 31.0932 15.4692 31.1355C15.4825 32.066 15.636 32.9622 15.9114 33.8056C16.7082 36.2448 18.5165 38.23 20.8396 39.2714C21.9727 39.7783 23.2263 40.0634 24.5474 40.0634C24.8611 40.0634 25.1682 40.0871 25.47 40.1307C28.5556 40.5781 30.933 43.2325 30.933 46.4306V56H33.6295V46.4306C33.6295 43.5215 32.2448 40.9292 30.0991 39.2714ZM33.6043 18.529C33.4706 18.5237 33.3382 18.5184 33.2032 18.5184C29.6821 18.5184 26.8189 15.6621 26.8189 12.1525V0H24.1224V12.1525C24.1224 13.8895 24.6162 15.5143 25.4713 16.8936C25.0901 17.51 24.636 18.0775 24.1224 18.5844V24.4844C24.1224 26.2214 24.6162 27.8462 25.4713 29.2255C26.9182 31.5618 29.3988 33.1985 32.2726 33.4915C32.5983 32.7273 32.7783 31.8878 32.7783 31.0074V30.8345C29.4557 30.6154 26.8202 27.8515 26.8202 24.4831V18.5831C28.3676 20.1102 30.4605 21.0883 32.7783 21.1952C32.9199 21.2018 33.0616 21.2057 33.2045 21.2057C34.0041 21.2057 34.7692 21.3549 35.4747 21.6228C37.8773 22.5375 39.5889 24.8579 39.5889 27.5717V33.4717C38.4637 32.3617 37.05 31.5407 35.4708 31.1341C35.4575 32.0647 35.304 32.9609 35.0286 33.803C37.6629 34.5883 39.5889 37.0249 39.5889 39.9036V47.2344V47.3216H42.2853V47.2344V39.9036V27.5704C42.2853 26.2254 41.9875 24.9503 41.458 23.8007C40.0734 20.8032 37.0923 18.6807 33.6043 18.529Z" fill="#1F5DB0"/>
</svg>
