<svg width="44" height="44" viewBox="0 0 44 44" fill="none" xmlns="http://www.w3.org/2000/svg">
<path fill-rule="evenodd" clip-rule="evenodd" d="M22.0002 0C9.86534 0 0 9.85489 0 21.9769C0 25.7244 0.92624 29.241 2.59362 32.3407C1.89901 33.0346 1.48195 34.0063 1.48195 35.0704C1.48195 37.1988 3.19556 38.9105 5.32619 38.9105C6.06732 38.9105 6.71576 38.7256 7.31762 38.3554C11.2081 41.8255 16.3493 44 21.9998 44C34.1347 44 44 34.1451 44 22.0231C44.0003 9.90117 34.1347 1.65464e-05 21.9998 1.65464e-05L22.0002 0ZM3.19581 35.0704C3.19581 33.8676 4.16862 32.8959 5.37267 32.8959C6.57681 32.8959 7.54953 33.8677 7.54953 35.0704C7.54953 36.2733 6.57673 37.245 5.37267 37.245C4.16829 37.1985 3.19581 36.2271 3.19581 35.0704ZM22.0002 42.288C16.8591 42.288 12.1348 40.3448 8.56849 37.1985C8.98526 36.5969 9.2169 35.8569 9.2169 35.07C9.2169 32.9416 7.50328 31.2299 5.37265 31.2299C4.90936 31.2299 4.49257 31.3225 4.0758 31.4613C2.59352 28.639 1.71376 25.4465 1.71376 22.0228C1.71376 10.8261 10.838 1.7578 22.0002 1.7578C33.1624 1.7578 42.2867 10.8724 42.2867 22.0228C42.2864 33.1731 33.2079 42.2878 21.9994 42.2878L22.0002 42.288ZM21.9999 13.556C21.4904 13.556 20.981 13.6022 20.4715 13.6948C19.7769 12.7695 18.6652 12.168 17.4146 12.168C15.2838 12.168 13.5703 13.8798 13.5703 16.0081C13.5703 16.8873 13.8947 17.7199 14.4038 18.3677C13.8943 19.4782 13.5703 20.681 13.5703 21.9765C13.5703 26.6494 17.3684 30.4434 22.0462 30.4434C26.7239 30.4434 30.522 26.6493 30.522 21.9765C30.522 17.3039 26.6778 13.5559 21.9999 13.5559L21.9999 13.556ZM17.4146 13.8339C18.6187 13.8339 19.5914 14.8057 19.5914 16.0084C19.5914 17.2113 18.6186 18.183 17.4146 18.183C16.2105 18.183 15.2377 17.2112 15.2377 16.0084C15.2377 14.8053 16.2105 13.8339 17.4146 13.8339ZM21.9999 28.7319C18.2484 28.7319 15.2376 25.6782 15.2376 21.9767C15.2376 21.0976 15.4227 20.2185 15.7471 19.4319C16.2566 19.6634 16.8123 19.8021 17.4145 19.8021C19.5452 19.8021 21.2587 18.0903 21.2587 15.962C21.2587 15.7306 21.2125 15.4992 21.166 15.2681C21.4439 15.2219 21.7217 15.2219 21.9995 15.2219C25.7511 15.2219 28.7619 18.2756 28.7619 21.9771C28.7622 25.6782 25.7515 28.7319 21.9999 28.7319L21.9999 28.7319ZM36.7746 18.1366C38.7198 18.3679 40.2021 19.9874 40.2021 21.9768V21.9773C40.2021 23.9667 38.674 25.5862 36.7746 25.8169C35.1073 32.3405 29.1325 37.1987 22.0461 37.1987C13.6166 37.1987 6.80811 30.3511 6.80811 21.9768C6.80811 13.5562 13.6629 6.75488 22.0461 6.75488C29.1326 6.75488 35.061 11.6129 36.7746 18.1366ZM8.47557 22.023C8.47557 29.4721 14.543 35.533 21.9999 35.533C28.206 35.533 33.486 31.323 35.061 25.6319C33.5787 25.1229 32.5136 23.6887 32.5136 22.023C32.5136 20.3574 33.5787 18.9232 35.061 18.4142C33.44 12.7234 28.2062 8.51303 21.9999 8.51303C14.5429 8.51303 8.47557 14.5739 8.47557 22.023ZM34.181 21.9768C34.181 23.1795 35.1537 24.1513 36.3579 24.1513C37.5158 24.1513 38.5347 23.1795 38.5347 21.9768C38.5347 20.774 37.562 19.8022 36.3579 19.8022C35.1538 19.8022 34.181 20.774 34.181 21.9768Z" fill="#27AAE1"/>
</svg>
