<svg width="44" height="44" viewBox="0 0 44 44" fill="none" xmlns="http://www.w3.org/2000/svg">
<path fill-rule="evenodd" clip-rule="evenodd" d="M32.5295 14.359C34.4573 14.2371 36.3447 14.9449 37.7082 16.3013L43.7209 22.228C43.9905 22.4966 44.0734 22.898 43.9317 23.2498C43.79 23.6015 43.4512 23.8364 43.0692 23.8473L34.3406 24.099C33.1191 24.1336 31.9572 24.6297 31.0923 25.4856L30.5416 26.0364C32.5303 26.8975 34.2232 28.3138 35.4143 30.112C36.6049 31.9105 37.2425 34.0135 37.2485 36.1644V37.152C37.2485 37.4041 37.1476 37.6455 36.9678 37.8237C36.7884 38.0016 36.5444 38.1016 36.2904 38.1016H35.294C33.1282 38.1032 31.0088 37.4793 29.1949 36.3064C27.381 35.1332 25.9513 33.4622 25.0801 31.4968C24.3646 32.3112 23.9506 33.3429 23.9061 34.4217L23.6237 43.0824C23.6107 43.46 23.3731 43.7942 23.0185 43.9333C22.6643 44.0724 22.2603 43.9899 21.99 43.7233L15.9824 37.7594C14.606 36.3944 13.8962 34.5038 14.0372 32.5791V32.5787L14.5164 26.0782C13.9941 25.8173 13.4721 25.537 12.9354 25.2237C9.0041 22.9075 5.74586 19.6208 3.47879 15.6846C1.21172 11.7485 0.0130326 7.29636 0 2.76397V0.950181C0 0.425539 0.428732 0.000255304 0.95807 0.000255304H2.78806C7.2985 -0.0195861 11.7372 1.11739 15.6727 3.30053C19.6081 5.48368 22.9065 8.63888 25.2474 12.4598C25.7123 13.2147 26.1383 13.9887 26.517 14.7674L32.5295 14.359ZM35.3369 36.2019V36.1638L35.3369 36.1637C35.3332 34.2533 34.7277 32.3912 33.6052 30.8378C32.483 29.2843 30.8993 28.1168 29.0754 27.4981L26.5507 30.0005C27.1723 31.8106 28.3502 33.3819 29.9195 34.4941C31.4885 35.6064 33.3696 36.2035 35.2984 36.2019H35.3369ZM29.7557 24.1408C30.9658 22.9425 32.5923 22.2476 34.3022 22.1985L40.7736 21.9989L36.3615 17.6304C35.387 16.656 34.0349 16.1469 32.6534 16.2343L25.9846 16.7093C25.5772 16.7441 25.1926 16.5192 25.0265 16.1489C24.6051 15.2208 24.1249 14.3202 23.5892 13.4517C21.4207 9.91268 18.3657 6.98897 14.7211 4.96489C11.0764 2.94082 6.96568 1.88458 2.78778 1.89949H1.91594V2.7636C1.92861 6.96073 3.03741 11.0831 5.13441 14.7295C7.23208 18.3759 10.2463 21.4218 13.8836 23.5707H13.8839C14.569 23.9699 15.23 24.3164 15.9006 24.625C16.2686 24.794 16.4891 25.1745 16.4517 25.5746H16.4514L15.9341 32.6972C15.8338 34.0714 16.3408 35.4215 17.3236 36.3962V36.3966L21.7788 40.8124L21.9897 34.345C22.0538 32.6584 22.763 31.0593 23.9731 29.8719L29.7557 24.1408ZM11.647 10.272C11.6467 9.32193 12.0238 8.41067 12.6954 7.73862H12.6954C13.3643 7.06041 14.2771 6.67871 15.2299 6.67871C16.1824 6.67871 17.0953 7.06041 17.7641 7.73862C18.4356 8.41062 18.8128 9.32193 18.8125 10.272C18.8122 11.2221 18.4348 12.1331 17.7627 12.8046C17.0909 13.4764 16.1797 13.8538 15.2298 13.8538C14.2798 13.8538 13.3685 13.4764 12.6967 12.8046C12.0249 12.1331 11.6472 11.222 11.647 10.272ZM14.9606 12.3029C15.5922 12.3865 16.227 12.1714 16.6773 11.7208L16.6773 11.7208C17.0571 11.3401 17.2722 10.8258 17.2765 10.2883C17.281 9.65102 16.9885 9.04809 16.4852 8.65729C15.982 8.26648 15.3254 8.13229 14.7094 8.29434C14.093 8.45644 13.5873 8.89625 13.3414 9.48419C13.0958 10.0719 13.1376 10.7407 13.455 11.2933C13.7724 11.8459 14.329 12.219 14.9606 12.3029Z" fill="#27AAE1"/>
</svg>
