<svg width="28" height="28" viewBox="0 0 28 28" fill="none" xmlns="http://www.w3.org/2000/svg">
<path d="M27.3069 17.7427H23.5643V14.0001C23.5643 13.8162 23.4913 13.64 23.3613 13.51C23.2314 13.3801 23.0551 13.307 22.8712 13.307H14.6931V10.2575H18.4357C18.6196 10.2575 18.7958 10.1845 18.9258 10.0545C19.0557 9.92459 19.1287 9.74835 19.1287 9.56444V0.693075C19.1287 0.509166 19.0557 0.332923 18.9258 0.20297C18.7958 0.0730175 18.6196 0 18.4357 0H9.56428C9.38037 0 9.20413 0.0730175 9.07418 0.20297C8.94423 0.332923 8.87121 0.509159 8.87121 0.693075V9.56444C8.87121 9.74835 8.94423 9.92459 9.07418 10.0545C9.20413 10.1845 9.38037 10.2575 9.56428 10.2575H13.3069V13.307H5.12873C4.94482 13.307 4.76858 13.3801 4.63862 13.51C4.50867 13.64 4.43565 13.8162 4.43565 14.0001V17.7427H0.693076C0.509166 17.7427 0.332923 17.8157 0.20297 17.9457C0.0730173 18.0756 0 18.2519 0 18.4358V27.3071C0 27.491 0.0730173 27.6673 0.20297 27.7972C0.332923 27.9272 0.50916 28.0002 0.693076 28.0002H9.56444C9.74835 28.0002 9.9246 27.9272 10.0545 27.7972C10.1845 27.6673 10.2575 27.4911 10.2575 27.3071V18.4358C10.2575 18.2519 10.1845 18.0756 10.0545 17.9457C9.9246 17.8157 9.74836 17.7427 9.56444 17.7427H5.82187V14.6932H22.1781V17.7427H18.4356C18.2516 17.7427 18.0754 17.8157 17.9455 17.9457C17.8155 18.0756 17.7425 18.2519 17.7425 18.4358V27.3071C17.7425 27.491 17.8155 27.6673 17.9455 27.7972C18.0754 27.9272 18.2516 28.0002 18.4356 28.0002H27.3069C27.4908 28.0002 27.6671 27.9272 27.797 27.7972C27.927 27.6673 28 27.4911 28 27.3071V18.4358C28 18.2519 27.927 18.0756 27.797 17.9457C27.6671 17.8157 27.4908 17.7427 27.3069 17.7427H27.3069ZM8.87089 19.1288V26.6137H1.38599V19.1288H8.87089ZM10.257 8.87101V1.38612H17.7419V8.87101H10.257ZM26.6133 26.6137H19.1284V19.1288H26.6133V26.6137Z" fill="#27AAE1"/>
</svg>
