<?xml version="1.0" encoding="utf-8"?>
<svg version="1.1" id="Layer_1" xmlns="http://www.w3.org/2000/svg" xmlns:xlink="http://www.w3.org/1999/xlink" x="0px" y="0px"
	 viewBox="0 0 1920 1080" style="enable-background:new 0 0 1920 1080;" xml:space="preserve">
<style type="text/css">
	.st0{fill:#0053B2;}
	.st1{fill:#00ACE4;}
	.st2{fill:none;}
</style>
<g>
	<path class="st0" d="M826,516.06h14.72v-73.94H826V516.06z M911.83,442.12h-55.22v73.94h14.72v-59.11h40.5v59.11h14.84v-59.11
		C926.66,447.06,921.72,442.12,911.83,442.12z M997.19,442.12h-55.22v73.94h14.72v-59.11h40.5v59.11h14.84v-59.11
		C1012.02,447.06,1007.08,442.12,997.19,442.12z M1095.62,446.47c-1.34-1.33-2.89-2.39-4.65-3.18c-1.77-0.78-3.67-1.18-5.71-1.18
		h-44.27c-1.96,0-3.83,0.37-5.59,1.12c-1.77,0.75-3.34,1.79-4.71,3.12c-1.37,1.34-2.45,2.91-3.24,4.71
		c-0.78,1.81-1.18,3.77-1.18,5.89v44.39c0,9.81,4.9,14.72,14.72,14.72h44.27c9.81,0,14.72-4.91,14.72-14.72v-44.39
		c0-2.04-0.39-3.96-1.18-5.77C1098.01,449.38,1096.95,447.81,1095.62,446.47z M1085.26,501.34h-44.27v-44.39h44.27V501.34z
		 M1144.25,496.63l-20.02-54.51h-16.95l29.2,73.94h14.72l30.02-73.94h-15.9L1144.25,496.63z M1249.51,442.12h-58.99v14.84h58.99
		v14.84h-44.27c-4.32,0-7.85,1.37-10.6,4.12c-2.75,2.75-4.12,6.28-4.12,10.6v14.84c0,2.12,0.37,4.08,1.12,5.89
		c0.75,1.81,1.77,3.36,3.06,4.65c1.29,1.29,2.84,2.32,4.65,3.06c1.8,0.75,3.77,1.12,5.89,1.12h59.11v-59.11
		c0-4.32-1.37-7.87-4.12-10.66C1257.47,443.51,1253.9,442.12,1249.51,442.12z M1249.51,501.34h-44.27V486.5h44.27V501.34z
		 M1361.1,516.06h14.72v-73.94h-14.72V516.06z M1460,446.47c-1.34-1.33-2.89-2.39-4.65-3.18c-1.77-0.78-3.67-1.18-5.71-1.18h-44.27
		c-1.96,0-3.83,0.37-5.59,1.12c-1.77,0.75-3.34,1.79-4.71,3.12c-1.37,1.34-2.45,2.91-3.24,4.71c-0.78,1.81-1.18,3.77-1.18,5.89
		v44.39c0,9.81,4.9,14.72,14.72,14.72h44.27c9.81,0,14.72-4.91,14.72-14.72v-44.39c0-2.04-0.39-3.96-1.18-5.77
		C1462.39,449.38,1461.33,447.81,1460,446.47z M1449.64,501.34h-44.27v-44.39h44.27V501.34z M1534.41,442.12h-55.22v73.94h14.72
		v-59.11h40.5v59.11h14.84v-59.11C1549.24,447.06,1544.3,442.12,1534.41,442.12z M1276.1,456.89h28.73v44.51
		c0,2.12,0.37,4.08,1.12,5.89c0.74,1.81,1.77,3.36,3.06,4.65c1.29,1.29,2.84,2.32,4.65,3.06c1.8,0.75,3.77,1.12,5.89,1.12h29.79
		V501.4h-29.79v-44.51h29.79v-14.72h-73.23V456.89z"/>
	<path class="st1" d="M886.53,613.67h-45.91v-61.25h-15.1v61.25c0,2.19,0.37,4.22,1.1,6.09c0.73,1.87,1.77,3.47,3.1,4.81
		c1.34,1.34,2.94,2.4,4.81,3.17c1.87,0.77,3.9,1.16,6.09,1.16h45.91c4.55,0,8.22-1.4,11.02-4.2c2.8-2.8,4.2-6.47,4.2-11.02v-61.25
		h-15.22V613.67z M978.72,552.41h-61.01v101.8h15.22v-25.33h45.79c2.03,0,3.98-0.38,5.84-1.16c1.87-0.77,3.49-1.83,4.87-3.17
		c1.38-1.34,2.5-2.9,3.35-4.69c0.85-1.79,1.28-3.73,1.28-5.85v-46.27c0-4.55-1.4-8.24-4.2-11.08
		C987.06,553.83,983.35,552.41,978.72,552.41z M978.72,613.67h-45.79v-45.91h45.79V613.67z M1064.45,583.1h-40.55v-15.34h52.24
		v-15.34h-52.24c-4.63,0-8.32,1.34-11.08,4.02c-2.76,2.68-4.14,6.45-4.14,11.32v15.34c0,5.03,1.4,8.83,4.2,11.39
		c2.8,2.56,6.47,3.84,11.02,3.84h40.55v15.34h-54.68v15.22h54.68c4.95,0,8.77-1.3,11.45-3.9c2.68-2.6,4.02-6.37,4.02-11.32v-15.34
		c0-4.63-1.4-8.32-4.2-11.08C1072.91,584.48,1069.15,583.1,1064.45,583.1z M1090.76,567.63h29.71v46.03c0,2.19,0.39,4.22,1.16,6.09
		c0.77,1.87,1.83,3.47,3.17,4.81c1.34,1.34,2.94,2.4,4.81,3.17c1.87,0.77,3.9,1.16,6.09,1.16h30.81v-15.22h-30.81v-46.03h30.81
		v-15.22h-75.74V567.63z M1234.58,552.41h-54.55v76.48h15.22v-61.13h39.33v15.34h15.34v-15.34
		C1249.92,557.53,1244.81,552.41,1234.58,552.41z M1333.03,556.74c-1.34-1.34-2.94-2.39-4.81-3.17c-1.87-0.77-3.9-1.16-6.09-1.16
		h-45.42c-4.87,0-8.61,1.42-11.2,4.26c-2.6,2.84-3.9,6.5-3.9,10.96v46.03c0,2.19,0.36,4.2,1.1,6.03c0.73,1.83,1.77,3.43,3.1,4.81
		c1.34,1.38,2.94,2.46,4.81,3.23c1.86,0.77,3.9,1.16,6.09,1.16h56.75v-15.22h-56.75V598.2h45.42c4.55,0,8.2-1.38,10.96-4.14
		c2.76-2.76,4.14-6.45,4.14-11.08v-15.34c0-2.19-0.36-4.22-1.1-6.09C1335.41,559.68,1334.37,558.08,1333.03,556.74z M1322.14,582.98
		h-45.42v-15.34h45.42V582.98z M1411.15,552.41h-61.01v15.34h61.01v15.34h-45.79c-4.47,0-8.12,1.42-10.96,4.26
		c-2.84,2.84-4.26,6.5-4.26,10.96v15.34c0,2.19,0.38,4.22,1.16,6.09c0.77,1.87,1.83,3.47,3.17,4.81c1.34,1.34,2.94,2.4,4.81,3.17
		c1.87,0.77,3.9,1.16,6.09,1.16h61.13v-61.13c0-4.46-1.42-8.14-4.26-11.02C1419.39,553.86,1415.7,552.41,1411.15,552.41z
		 M1411.15,613.67h-45.79v-15.34h45.79V613.67z M1534.02,552.41h-91.57v76.48h15.22v-61.13h30.56v61.13h15.22v-61.13h30.56v61.13
		h15.22v-61.13C1549.24,557.53,1544.17,552.41,1534.02,552.41z"/>
	<g>
		<path class="st2" d="M552.98,513.37v-44.7c-11.69,11.57-27.5,18.98-45.01,19.79v73.02C533.07,559.82,552.98,538.88,552.98,513.37z
			"/>
		<path class="st2" d="M456.52,536.78v44.7c8.5-8.41,19.18-14.63,31.11-17.71c0-0.32-0.02-0.65-0.02-0.97v-71.09
			C469.45,498.64,456.52,516.22,456.52,536.78z"/>
		<path class="st2" d="M618.37,561.49v-73.02c-17.51-0.81-33.32-8.22-45.01-19.79v44.7C573.36,538.88,593.27,559.82,618.37,561.49z"
			/>
		<path class="st2" d="M686.98,487.92c18.79,0,35.83,7.6,48.23,19.87v-23.07c0-26.6-21.64-48.23-48.23-48.23
			c-18.79,0-35.83-7.6-48.23-19.87v23.07C638.74,466.29,660.38,487.92,686.98,487.92z"/>
		<path class="st2" d="M391.13,484.73v23.07c12.4-12.28,29.45-19.87,48.23-19.87c26.6,0,48.23-21.64,48.23-48.23v-23.07
			c-12.4,12.28-29.45,19.87-48.23,19.87C412.77,436.49,391.13,458.13,391.13,484.73z"/>
		<path class="st2" d="M638.72,563.77c11.93,3.08,22.61,9.3,31.11,17.71v-44.7c0-20.56-12.93-38.14-31.08-45.07v71.09
			C638.74,563.12,638.72,563.45,638.72,563.77z"/>
		<path class="st2" d="M563.17,549.29c-10.93,17.7-29.66,30.1-51.38,32.32c7.35,17.27,24.49,29.42,44.41,29.42
			c2.35,0,4.68,0.12,6.97,0.35c2.29-0.23,4.62-0.35,6.97-0.35c19.92,0,37.06-12.14,44.41-29.42
			C592.84,579.39,574.1,567,563.17,549.29z"/>
		<path class="st1" d="M487.6,416.62v-48.73c0,26.6-21.64,48.23-48.23,48.23c-37.83,0-68.61,30.78-68.61,68.61v71.81
			c0-19.04,7.8-36.29,20.37-48.73v-23.07c0-26.6,21.64-48.23,48.23-48.23C458.15,436.49,475.19,428.89,487.6,416.62z M456.52,581.48
			v-44.7c0-20.56,12.93-38.14,31.08-45.07c5.33-2.04,11.11-3.16,17.15-3.16c1.08,0,2.15-0.03,3.22-0.08
			c17.51-0.81,33.32-8.22,45.01-19.79c3.88-3.84,7.3-8.14,10.19-12.81c-6.45-10.46-10.19-22.76-10.19-35.92
			c0,26.6-21.64,48.23-48.23,48.23c-1.02,0-2.02,0.03-3.03,0.08c-26.35,1.15-48.87,17.23-59.33,39.97c-4,8.7-6.25,18.37-6.25,28.56
			v93.44v55.54v0.66h20.37v-0.66v-55.54c0-21.81,14.55-40.27,34.45-46.22c-2.08-6.39-3.24-13.18-3.34-20.23
			C475.69,566.85,465.02,573.06,456.52,581.48z M507.97,561.49v1.31c0,6.67,1.36,13.03,3.82,18.82
			c21.71-2.22,40.45-14.62,51.38-32.32c-6.45-10.46-10.19-22.76-10.19-35.92C552.98,538.88,533.07,559.82,507.97,561.49z
			 M528.2,625.4c-16.21,12.56-26.67,32.19-26.67,54.24v72.5h20.37v-72.5c0-24.23,17.96-44.34,41.27-47.73
			c-2.28-0.33-4.6-0.51-6.97-0.51C546.23,631.4,536.75,629.25,528.2,625.4z M618.37,488.46v73.02v1.31c0,6.67-1.36,13.03-3.82,18.82
			c-7.35,17.27-24.49,29.42-44.41,29.42c-2.35,0-4.68,0.12-6.97,0.35c13.09,1.33,25.1,6.36,34.97,14.02
			c17.56-7.88,31.21-22.93,37.23-41.41c2.08-6.39,3.24-13.18,3.34-20.22c0-0.32,0.02-0.65,0.02-0.97v-71.09
			c-5.33-2.04-11.11-3.16-17.15-3.16C620.51,488.54,619.44,488.51,618.37,488.46z M735.21,507.8
			c-12.4-12.28-29.45-19.87-48.23-19.87c-26.6,0-48.23-21.64-48.23-48.23v-23.07v-48.73v-0.43h-20.37v0.43v71.81
			c0,10.19,2.25,19.85,6.25,28.56c26.35,1.15,48.87,17.23,59.33,39.97c1.01,0.04,2.01,0.08,3.03,0.08
			c26.6,0,48.23,21.64,48.23,48.23v72.5h20.37v-72.5C755.58,537.49,747.78,520.24,735.21,507.8z"/>
		<path class="st0" d="M507.97,439.69v-71.81v-0.43H487.6v0.43v48.73v23.07c0,26.6-21.64,48.23-48.23,48.23
			c-18.79,0-35.83,7.6-48.23,19.87c-12.57,12.44-20.37,29.69-20.37,48.73v72.5h20.37v-72.5c0-26.6,21.64-48.23,48.23-48.23
			c1.02,0,2.02-0.03,3.03-0.08c10.46-22.74,32.98-38.82,59.33-39.97C505.72,459.55,507.97,449.88,507.97,439.69z M686.98,416.12
			c-26.6,0-48.23-21.64-48.23-48.23v48.73c12.4,12.28,29.45,19.87,48.23,19.87c26.6,0,48.23,21.64,48.23,48.23v23.07
			c12.57,12.44,20.37,29.69,20.37,48.73v-71.81C755.58,446.9,724.81,416.12,686.98,416.12z M598.14,625.4
			c-9.88-7.66-21.88-12.69-34.97-14.02c-2.29-0.23-4.62-0.35-6.97-0.35c-19.92,0-37.06-12.14-44.41-29.42
			c-2.46-5.79-3.82-12.15-3.82-18.82v-1.31v-73.02c-1.07,0.05-2.14,0.08-3.22,0.08c-6.04,0-11.82,1.13-17.15,3.16v71.09
			c0,0.33,0.02,0.65,0.02,0.97c0.1,7.05,1.26,13.84,3.34,20.23c6.02,18.48,19.68,33.52,37.23,41.41c8.56,3.84,18.03,6,28.01,6
			c2.37,0,4.69,0.18,6.97,0.51c23.31,3.39,41.27,23.5,41.27,47.73v72.5h20.37v-72.5C624.81,657.6,614.35,637.96,598.14,625.4z
			 M624.62,468.25c-1.01-0.04-2.01-0.08-3.03-0.08c-26.6,0-48.23-21.64-48.23-48.23v-92.07h-20.37v92.07
			c0,13.16,3.73,25.47,10.19,35.92c-2.88,4.67-6.31,8.97-10.19,12.81v44.7c0,13.16,3.73,25.47,10.19,35.92
			c10.93,17.7,29.67,30.1,51.38,32.32c2.46-5.79,3.82-12.15,3.82-18.82v-1.31c-25.1-1.66-45.01-22.6-45.01-48.12v-44.7
			c11.69,11.57,27.5,18.98,45.01,19.79c1.07,0.05,2.14,0.08,3.22,0.08c6.04,0,11.82,1.13,17.15,3.16
			c18.15,6.93,31.08,24.51,31.08,45.07v44.7c-8.5-8.41-19.18-14.63-31.11-17.71c-0.1,7.05-1.26,13.84-3.34,20.22
			c19.9,5.95,34.45,24.41,34.45,46.22v55.54v0.66h20.37v-0.66v-55.54v-93.44c0-10.19-2.25-19.85-6.25-28.56
			C673.49,485.48,650.97,469.4,624.62,468.25z"/>
	</g>
</g>
</svg>
